# xmcd
#
# Track frame offsets: 
#        150
#        11898
#        21333
#        32008
#        43620
#        55130
#        65870
#        75605
#        87470
#        97820
#        106630
#        116173
#
# Disc length: 1690 seconds
#
# Revision: 0
# Processed by: cddbd v1.4PL0 Copyright (c) Steve Scherf et al.
# Submitted via: ExactAudioCopy v0.90a11
#
DISCID=9706980c
DTITLE=Patsy Cline - Today, tomorrow and forever
DYEAR=1900
DGENRE=
TTITLE0=Today, tomorrow and forever
TTITLE1=Love, Love, Love me honey do
TTITLE2=I can see an angel
TTITLE3=Let the teardrops fall
TTITLE4=I've loved and lost again
TTITLE5=Honky tonk merry go round
TTITLE6=I'm blue again
TTITLE7=If I could only stay asleep
TTITLE8=I love you honey
TTITLE9=Try again
TTITLE10=I'm moving along
TTITLE11=Gotta lot of rhythm (in my soul)
EXTD=
EXTT0=
EXTT1=
EXTT2=
EXTT3=
EXTT4=
EXTT5=
EXTT6=
EXTT7=
EXTT8=
EXTT9=
EXTT10=
EXTT11=
PLAYORDER=
